<?xml version="1.0" standalone="no"?>
<!DOCTYPE svg PUBLIC "-//W3C//DTD SVG 20010904//EN"
 "http://www.w3.org/TR/2001/REC-SVG-20010904/DTD/svg10.dtd">
<svg version="1.0" xmlns="http://www.w3.org/2000/svg"
 width="783.000000pt" height="300.000000pt" viewBox="0 0 783.000000 300.000000"
 preserveAspectRatio="xMidYMid meet">
<metadata>
Created by potrace 1.10, written by Peter Selinger 2001-2011
</metadata>
<g transform="translate(0.000000,300.000000) scale(0.100000,-0.100000)"
fill="#1243d9" stroke="none">
<path d="M3650 2957 c-3 -2 -82 -7 -177 -10 -95 -3 -176 -8 -180 -10 -5 -3
-81 -9 -169 -13 -87 -3 -162 -8 -166 -10 -3 -2 -59 -8 -124 -14 -64 -5 -149
-14 -188 -20 -39 -6 -105 -15 -146 -20 -203 -28 -432 -70 -625 -115 -38 -9
-95 -22 -125 -29 -30 -7 -62 -15 -70 -18 -17 -7 -82 -24 -150 -40 -25 -5 -49
-14 -54 -19 -6 -5 -19 -9 -30 -9 -12 0 -34 -7 -50 -15 -15 -8 -36 -15 -45 -15
-9 0 -29 -7 -45 -15 -15 -8 -36 -15 -45 -15 -9 0 -25 -6 -36 -14 -11 -7 -36
-17 -55 -21 -19 -4 -40 -11 -45 -15 -6 -5 -35 -18 -65 -29 -30 -12 -64 -25
-75 -30 -47 -20 -360 -176 -365 -181 -3 -3 -34 -24 -70 -45 -85 -50 -144 -91
-217 -147 -22 -18 -54 -43 -70 -55 -88 -67 -232 -223 -244 -265 -5 -18 -8
-145 -8 -283 0 -137 -1 -257 -3 -265 -3 -13 91 -15 807 -13 766 2 1000 10
1030 33 6 4 33 11 60 15 28 4 55 10 60 15 6 4 26 11 45 15 19 4 41 11 50 16 8
5 38 18 65 29 28 12 66 28 85 37 52 23 352 173 455 228 154 83 378 195 389
195 6 0 23 6 38 14 15 8 41 17 59 21 19 4 40 11 49 15 63 30 89 40 114 46 16
4 41 13 55 20 14 8 35 14 47 14 11 0 24 3 28 8 4 4 35 13 69 20 34 7 94 19
132 27 202 44 225 44 2025 44 l1715 1 2 42 c3 38 -1 46 -26 63 -25 17 -137
100 -166 123 -69 54 -346 195 -488 247 -26 10 -50 22 -53 26 -3 5 -15 9 -27 9
-12 0 -34 6 -49 14 -15 8 -42 17 -60 21 -18 4 -37 11 -43 15 -5 4 -26 11 -45
15 -19 4 -39 11 -45 15 -5 4 -29 11 -52 15 -24 4 -45 10 -48 15 -3 4 -28 11
-55 15 -27 4 -52 11 -55 15 -3 5 -30 12 -60 15 -31 4 -57 11 -60 15 -3 5 -29
11 -58 15 -28 3 -61 10 -72 15 -22 10 -65 18 -380 75 -148 26 -416 63 -610 84
-245 26 -307 32 -425 37 -69 3 -134 8 -144 11 -34 10 -708 29 -716 20z"/>
<path d="M6185 1899 c-1242 -5 -1444 -8 -1540 -22 -121 -18 -225 -39 -240 -48
-5 -4 -29 -10 -52 -14 -24 -4 -45 -10 -48 -15 -3 -5 -23 -11 -45 -15 -22 -4
-40 -11 -40 -16 0 -5 -5 -9 -11 -9 -6 0 -48 -22 -94 -50 -46 -27 -88 -50 -94
-50 -6 0 -11 -4 -11 -9 0 -5 -12 -12 -26 -15 -14 -4 -44 -18 -65 -32 -22 -14
-50 -29 -62 -34 -12 -6 -29 -14 -37 -19 -58 -33 -460 -234 -555 -276 -27 -12
-71 -32 -96 -44 -25 -11 -52 -21 -60 -21 -8 0 -23 -7 -33 -15 -11 -8 -27 -15
-37 -15 -9 0 -30 -7 -45 -15 -16 -8 -40 -15 -54 -15 -15 0 -30 -4 -35 -9 -20
-20 -183 -31 -585 -41 -228 -6 -685 -17 -1015 -25 -330 -9 -685 -16 -790 -15
-221 0 -295 -7 -295 -26 0 -8 4 -14 8 -14 5 0 37 -27 73 -60 l64 -60 1280 0
c1097 0 1288 2 1335 15 30 8 69 15 87 15 17 0 34 4 37 9 3 5 32 12 63 16 32 4
63 10 68 15 6 4 29 11 52 15 24 4 45 11 49 16 3 5 14 9 25 9 11 0 41 9 67 21
99 44 178 81 192 90 8 5 22 12 30 16 12 6 72 40 180 103 57 34 395 200 406
200 8 0 14 5 14 10 0 6 5 10 11 10 7 0 46 16 88 36 88 41 126 58 161 72 14 5
46 19 71 31 25 11 53 21 62 21 9 0 19 5 22 10 3 6 14 10 23 10 9 0 30 7 45 15
15 8 45 17 65 21 20 4 42 10 47 14 6 5 42 11 80 14 39 4 99 11 135 17 36 5
133 14 215 20 83 5 188 13 235 17 47 4 543 8 1102 7 560 0 1018 3 1019 8 4 47
0 120 -7 125 -5 4 -652 4 -1439 1z"/>
<path d="M6075 1624 c-5 -2 -57 -10 -115 -18 -175 -25 -234 -37 -267 -52 -17
-8 -38 -14 -46 -14 -8 0 -32 -7 -53 -15 -50 -20 -227 -108 -234 -116 -3 -3
-16 -10 -30 -14 -14 -4 -41 -18 -60 -30 -68 -42 -448 -224 -602 -289 -71 -30
-85 -36 -130 -55 -26 -12 -54 -21 -62 -21 -8 0 -17 -4 -20 -9 -3 -5 -23 -12
-43 -16 -21 -4 -42 -10 -48 -14 -5 -5 -44 -18 -85 -31 -41 -12 -84 -26 -95
-31 -22 -9 -80 -24 -165 -42 -30 -7 -59 -15 -65 -18 -5 -4 -39 -10 -74 -14
-35 -4 -78 -11 -95 -16 -17 -5 -188 -11 -381 -14 -1628 -22 -2017 -27 -2417
-28 -252 -1 -458 -5 -458 -8 0 -4 30 -22 68 -41 37 -19 94 -49 127 -66 33 -17
92 -45 130 -62 39 -17 92 -42 118 -56 27 -13 53 -24 58 -24 11 0 91 -34 121
-50 10 -6 23 -10 30 -10 7 -1 31 -9 53 -20 22 -11 48 -19 57 -20 9 0 20 -4 23
-10 3 -5 14 -10 23 -10 9 0 30 -7 46 -15 15 -8 36 -15 45 -15 9 0 28 -6 43
-14 14 -8 45 -17 67 -21 23 -4 43 -11 46 -15 3 -5 26 -12 50 -16 25 -3 48 -10
50 -15 3 -4 27 -11 53 -15 26 -3 52 -10 57 -14 6 -5 31 -11 58 -15 26 -4 50
-11 52 -15 3 -5 31 -12 63 -16 31 -3 62 -9 67 -13 15 -9 239 -52 368 -71 38
-5 85 -14 105 -19 20 -5 73 -12 117 -16 44 -3 96 -10 115 -15 19 -5 82 -12
140 -15 58 -3 157 -10 220 -16 157 -15 1097 -14 1360 0 337 19 588 40 785 66
138 18 170 22 275 35 47 6 99 15 115 20 17 5 57 14 90 19 112 18 180 32 200
41 11 5 40 13 65 19 76 16 134 32 165 45 17 7 57 21 90 31 33 10 74 24 92 32
17 7 38 13 46 13 9 0 19 4 22 10 3 5 14 10 23 10 9 1 35 9 57 20 22 11 45 19
51 20 7 0 25 7 40 15 16 8 37 15 46 15 9 0 20 5 23 10 3 6 14 10 23 10 9 1 35
9 57 20 22 11 46 19 53 20 7 0 20 4 30 9 9 6 40 20 67 32 28 12 57 25 65 30 8
5 22 12 30 15 55 21 143 72 151 87 6 10 9 32 7 49 l-3 31 -1144 3 c-630 2
-1148 7 -1153 12 -5 5 10 21 34 38 24 16 49 35 56 42 7 6 19 12 26 12 8 0 18
6 24 13 6 7 42 28 79 47 37 19 70 38 73 41 3 3 68 36 145 74 253 122 301 145
425 197 14 5 39 16 55 23 17 8 53 23 80 35 28 12 59 25 70 30 88 39 116 50
129 50 8 0 18 5 21 10 3 6 14 10 23 10 9 0 30 7 45 15 15 8 43 17 63 21 19 3
37 10 40 15 3 5 341 9 782 9 427 0 782 4 789 8 8 5 10 24 4 65 -4 31 -10 58
-12 60 -53 38 -18 37 -876 36 -450 0 -822 -2 -828 -5z"/>
<path d="M7235 1320 c-423 -5 -442 -6 -485 -26 -25 -12 -55 -25 -67 -28 -24
-8 -37 -39 -31 -77 l3 -24 519 0 520 0 1 69 c0 37 -4 73 -10 80 -7 8 -130 10
-450 6z"/>
<path d="M6910 1050 c-355 -3 -650 -9 -657 -13 -15 -10 -27 -69 -19 -95 4 -12
19 -22 37 -26 50 -10 1200 -7 1244 4 22 5 45 16 51 25 15 21 15 80 1 97 -10
11 -134 12 -657 8z"/>
</g>
</svg>
